<svg xmlns="http://www.w3.org/2000/svg" viewBox="0 0 1920 1080" font-family="Arial, sans-serif">
  <rect width="1920" height="1080" fill="#FFFFFF"/>
  <text x="960" y="150" text-anchor="middle" font-size="58" font-weight="bold" fill="#1E2A47">Стек технологій</text>
  <text x="300" y="270" text-anchor="middle" font-size="30" font-weight="bold" fill="#1F5170" letter-spacing="2">FRONTEND</text>
  <line x1="130" y1="305" x2="470" y2="305" stroke="#1F5170" stroke-width="3"/>
  <circle cx="150" cy="383" r="28" fill="#000000"/><text x="150" y="394.0" text-anchor="middle" font-size="39" font-weight="900" fill="white" font-family="Arial, sans-serif">N</text>
  <text x="210" y="381" font-size="26" font-weight="bold" fill="#1E2A47">Next.js</text>
  <text x="210" y="413" font-size="20" fill="#94A3B8">клієнтський фреймворк</text>
  <circle cx="150" cy="498" r="7" fill="#61DAFB"/><ellipse cx="150" cy="498" rx="25" ry="10.0" fill="none" stroke="#61DAFB" stroke-width="3"/><ellipse cx="150" cy="498" rx="25" ry="10.0" fill="none" stroke="#61DAFB" stroke-width="3" transform="rotate(60 150 498)"/><ellipse cx="150" cy="498" rx="25" ry="10.0" fill="none" stroke="#61DAFB" stroke-width="3" transform="rotate(120 150 498)"/>
  <text x="210" y="496" font-size="26" font-weight="bold" fill="#1E2A47">React</text>
  <text x="210" y="528" font-size="20" fill="#94A3B8">інтерфейс</text>
  <rect x="122" y="585" width="56" height="56" fill="#3178C6" rx="6"/><text x="150" y="624.0" text-anchor="middle" font-size="25" font-weight="900" fill="white" font-family="Arial, sans-serif">TS</text>
  <text x="210" y="611" font-size="26" font-weight="bold" fill="#1E2A47">TypeScript</text>
  <text x="210" y="643" font-size="20" fill="#94A3B8">типізована мова</text>
  <path d="M 122 728 q 14 -14, 28 0 t 28 0" stroke="#06B6D4" stroke-width="7" fill="none" stroke-linecap="round"/><path d="M 130.0 742 q 9 -9, 20.0 0 t 20.0 0" stroke="#06B6D4" stroke-width="7" fill="none" stroke-linecap="round" opacity="0.7"/>
  <text x="210" y="726" font-size="26" font-weight="bold" fill="#1E2A47">Tailwind CSS</text>
  <text x="210" y="758" font-size="20" fill="#94A3B8">стилізація</text>
  <circle cx="141" cy="843" r="17.0" fill="#2EAD33"/><circle cx="159" cy="843" r="17.0" fill="#E2574C"/>
  <text x="210" y="841" font-size="26" font-weight="bold" fill="#1E2A47">Playwright</text>
  <text x="210" y="873" font-size="20" fill="#94A3B8">сценарне тестування</text>
  <text x="740" y="270" text-anchor="middle" font-size="30" font-weight="bold" fill="#1F5170" letter-spacing="2">BACKEND</text>
  <line x1="570" y1="305" x2="910" y2="305" stroke="#1F5170" stroke-width="3"/>
  <polygon points="614.2,369.0 614.2,397.0 590.0,411.0 565.8,397.0 565.8,369.0 590.0,355.0" fill="#E0234E"/><text x="590" y="394.0" text-anchor="middle" font-size="33" font-weight="900" fill="white" font-family="Arial, sans-serif">N</text>
  <text x="650" y="381" font-size="26" font-weight="bold" fill="#1E2A47">NestJS</text>
  <text x="650" y="413" font-size="20" fill="#94A3B8">REST API</text>
  <polygon points="590,470 611.0,516.0 569.0,516.0" fill="#2D3748"/><line x1="579.0" y1="491" x2="601.0" y2="491" stroke="white" stroke-width="2.5"/><line x1="575.0" y1="505" x2="605.0" y2="505" stroke="white" stroke-width="2.5"/>
  <text x="650" y="496" font-size="26" font-weight="bold" fill="#1E2A47">Prisma</text>
  <text x="650" y="528" font-size="20" fill="#94A3B8">об'єктно-реляційний шар</text>
  <circle cx="590" cy="610" r="26" fill="#336791"/><path d="M 581 622 q -5 7, -7 14" stroke="#336791" stroke-width="5" fill="none" stroke-linecap="round"/><circle cx="582.0" cy="606" r="3" fill="white"/><circle cx="598.0" cy="606" r="3" fill="white"/>
  <text x="650" y="611" font-size="26" font-weight="bold" fill="#1E2A47">PostgreSQL</text>
  <text x="650" y="643" font-size="20" fill="#94A3B8">реляційна СУБД</text>
  <polygon points="590.0,700.0 594.6,716.9 609.8,708.2 601.1,723.4 618.0,728.0 601.1,732.6 609.8,747.8 594.6,739.1 590.0,756.0 585.4,739.1 570.2,747.8 578.9,732.6 562.0,728.0 578.9,723.4 570.2,708.2 585.4,716.9" fill="#D63AFF"/>
  <text x="650" y="726" font-size="26" font-weight="bold" fill="#1E2A47">JWT + bcrypt</text>
  <text x="650" y="758" font-size="20" fill="#94A3B8">автентифікація</text>
  <rect x="562" y="815" width="56" height="56" fill="#635BFF" rx="10"/><text x="590" y="854.0" text-anchor="middle" font-size="42" font-weight="900" fill="white" font-family="Arial, sans-serif">S</text>
  <text x="650" y="841" font-size="26" font-weight="bold" fill="#1E2A47">Stripe</text>
  <text x="650" y="873" font-size="20" fill="#94A3B8">платіжний сервіс</text>
  <rect x="562" y="943.0" width="56" height="39" fill="#1A1A1A" rx="6"/><polyline points="566,947.0 590,958 614,947.0" fill="none" stroke="white" stroke-width="2.5"/>
  <text x="650" y="956" font-size="26" font-weight="bold" fill="#1E2A47">Resend</text>
  <text x="650" y="988" font-size="20" fill="#94A3B8">поштовий сервіс</text>
  <text x="1180" y="270" text-anchor="middle" font-size="30" font-weight="bold" fill="#1F5170" letter-spacing="2">СЕРВІС ML</text>
  <line x1="1010" y1="305" x2="1350" y2="305" stroke="#1F5170" stroke-width="3"/>
  <path d="M 1012.0 360 q 0 -18.0, 18.0 -18.0 h 14 q 18.0 0, 18.0 18.0 v 14 h -28 q -14 0, -14 9 z" fill="#3776AB"/>
<path d="M 1048.0 406 q 0 18.0, -18.0 18.0 h -14 q -18.0 0, -18.0 -18.0 v -14 h 28 q 14 0, 14 -9 z" fill="#FFD43B"/>
<circle cx="1019.0" cy="367.0" r="3" fill="white"/>
<circle cx="1041.0" cy="399.0" r="3" fill="white"/>
  <text x="1090" y="381" font-size="26" font-weight="bold" fill="#1E2A47">Python</text>
  <text x="1090" y="413" font-size="20" fill="#94A3B8">мова сервісу</text>
  <circle cx="1030" cy="498" r="28" fill="#009688"/><polygon points="1021,480.0 1037,494 1027,494 1039,516.0 1023,502 1033,502" fill="white"/>
  <text x="1090" y="496" font-size="26" font-weight="bold" fill="#1E2A47">FastAPI</text>
  <text x="1090" y="528" font-size="20" fill="#94A3B8">вебфреймворк</text>
  <circle cx="1021" cy="613" r="15.0" fill="#F89939" opacity="0.9"/><circle cx="1039" cy="613" r="15.0" fill="#3499CD" opacity="0.9"/>
  <text x="1090" y="611" font-size="26" font-weight="bold" fill="#1E2A47">scikit-learn</text>
  <text x="1090" y="643" font-size="20" fill="#94A3B8">побудова моделей</text>
  <circle cx="1030" cy="714" r="9" fill="#FF6F00"/><circle cx="1016" cy="735" r="9" fill="#FF6F00" opacity="0.7"/><circle cx="1044" cy="735" r="9" fill="#FF6F00" opacity="0.7"/><line x1="1030" y1="721" x2="1016" y2="728" stroke="#FF6F00" stroke-width="3"/><line x1="1030" y1="721" x2="1044" y2="728" stroke="#FF6F00" stroke-width="3"/>
  <text x="1090" y="726" font-size="26" font-weight="bold" fill="#1E2A47">Gradient Boosting</text>
  <text x="1090" y="758" font-size="20" fill="#94A3B8">оцінка ризику</text>
  <rect x="1002" y="834" width="8" height="37" fill="#E63946"/>
<rect x="1016" y="815" width="8" height="56" fill="#1D3557"/>
<rect x="1026" y="825.0" width="8" height="46" fill="#1D3557"/>
<rect x="1036" y="834" width="8" height="36" fill="#E63946"/>
  <text x="1090" y="841" font-size="26" font-weight="bold" fill="#1E2A47">SHAP</text>
  <text x="1090" y="873" font-size="20" fill="#94A3B8">пояснюваність</text>
  <text x="1620" y="270" text-anchor="middle" font-size="30" font-weight="bold" fill="#1F5170" letter-spacing="2">ІНФРАСТРУКТУРА</text>
  <line x1="1450" y1="305" x2="1790" y2="305" stroke="#1F5170" stroke-width="3"/>
  <polygon points="1470,355 1498,404.0 1442,404.0" fill="#000000"/>
  <text x="1530" y="381" font-size="26" font-weight="bold" fill="#1E2A47">Vercel</text>
  <text x="1530" y="413" font-size="20" fill="#94A3B8">розгортання frontend</text>
  <rect x="1442" y="470" width="56" height="56" fill="#13111C" rx="8"/><rect x="1459.0" y="480.0" width="7" height="39" fill="white" rx="2"/><rect x="1474.0" y="480.0" width="7" height="39" fill="white" rx="2"/>
  <text x="1530" y="496" font-size="26" font-weight="bold" fill="#1E2A47">Railway</text>
  <text x="1530" y="528" font-size="20" fill="#94A3B8">backend, БД, ML</text>
  <path d="M 1445 620 q -3 -18.0, 11.0 -11.0 q 7 -11.0, 15.0 -7 q 11.0 0, 11.0 9 q 7 0, 7 7 h -50 z" fill="#F38020"/>
  <text x="1530" y="611" font-size="26" font-weight="bold" fill="#1E2A47">Cloudflare R2</text>
  <text x="1530" y="643" font-size="20" fill="#94A3B8">сховище файлів</text>
  <path d="M 1470 700 L 1496 754 L 1444 754 Z" fill="#362D59"/>
  <text x="1530" y="726" font-size="26" font-weight="bold" fill="#1E2A47">Sentry</text>
  <text x="1530" y="758" font-size="20" fill="#94A3B8">моніторинг помилок</text>
  <g fill="#2496ED">
<rect x="1440" y="839" width="9" height="9" rx="1"/>
<rect x="1451" y="839" width="9" height="9" rx="1"/>
<rect x="1462" y="839" width="9" height="9" rx="1"/>
<rect x="1473" y="839" width="9" height="9" rx="1"/>
<rect x="1451" y="828" width="9" height="9" rx="1"/>
<rect x="1462" y="828" width="9" height="9" rx="1"/>
<rect x="1462" y="817" width="9" height="9" rx="1"/>
<path d="M 1434 852 q 28 9, 71 0 q -7 9, -18.0 7 h -18.0 q -7 0, -18.0 -7" fill="#2496ED" stroke="none"/>
</g>
  <text x="1530" y="841" font-size="26" font-weight="bold" fill="#1E2A47">Docker Compose</text>
  <text x="1530" y="873" font-size="20" fill="#94A3B8">локальна розробка</text>
</svg>